<?xml version="1.0" standalone="no"?>
<!DOCTYPE svg PUBLIC "-//W3C//DTD SVG 20010904//EN"
 "http://www.w3.org/TR/2001/REC-SVG-20010904/DTD/svg10.dtd">
<svg version="1.0" xmlns="http://www.w3.org/2000/svg"
 width="2000.000000pt" height="2000.000000pt" viewBox="0 0 2000.000000 2000.000000"
 preserveAspectRatio="xMidYMid meet">

<g transform="translate(0.000000,2000.000000) scale(0.100000,-0.100000)"
fill="#000000" stroke="none">
<path d="M0 10000 l0 -10000 10000 0 10000 0 0 10000 0 10000 -10000 0 -10000
0 0 -10000z m17050 3403 c0 -3740 -4 -5745 -10 -5853 -94 -1522 -658 -2935
-1639 -4109 -530 -634 -1175 -1178 -1896 -1600 -165 -97 -620 -326 -790 -398
-493 -208 -976 -346 -1545 -442 -445 -75 -464 -76 -1140 -76 -576 0 -614 1
-785 23 -968 126 -1744 359 -2510 756 -1050 544 -1956 1358 -2610 2346 -699
1055 -1086 2221 -1165 3505 -6 101 -10 2244 -10 5848 l0 5687 7050 0 7050 0 0
-5687z"/>
<path d="M3323 13168 c3 -4054 7 -5573 15 -5653 60 -573 126 -937 247 -1360
202 -702 470 -1281 878 -1895 493 -742 1140 -1387 1882 -1875 917 -603 1916
-949 3090 -1072 241 -25 913 -25 1170 0 625 60 1257 207 1778 413 1247 494
2340 1369 3109 2489 709 1034 1116 2239 1178 3490 6 127 10 2169 10 5603 l0
5402 -6680 0 -6680 0 3 -5542z m1487 5167 c220 -53 392 -223 444 -437 l6 -28
-172 0 -173 1 -29 46 c-39 61 -101 99 -187 113 -169 29 -302 -39 -373 -189
-29 -63 -31 -72 -31 -186 0 -111 2 -125 29 -182 35 -76 102 -142 171 -169 37
-14 75 -19 145 -19 86 0 101 3 155 30 45 23 68 42 93 80 l34 50 -146 3 -146 3
0 149 0 150 326 0 327 0 -6 -142 c-3 -86 -11 -167 -21 -203 -79 -286 -304
-446 -626 -446 -140 0 -236 22 -349 81 -150 78 -265 213 -317 373 -36 110 -45
297 -19 414 55 254 247 449 502 507 37 9 79 18 93 20 44 8 203 -3 270 -19z
m2980 -649 c171 -368 310 -680 310 -693 l0 -23 -173 0 -173 0 -38 85 -38 85
-273 0 -273 0 -38 -85 -38 -85 -173 0 -173 0 0 23 c0 13 126 298 281 633 155
335 294 637 310 672 l28 63 76 -3 76 -3 309 -669z m1069 659 c190 -45 325
-170 360 -333 21 -100 34 -92 -159 -92 l-170 0 0 24 c0 34 -53 83 -103 97 -86
23 -213 -9 -251 -63 -18 -26 -21 -90 -5 -120 18 -34 91 -57 241 -78 244 -34
342 -71 416 -155 58 -66 77 -128 77 -250 0 -91 -3 -106 -31 -165 -41 -86 -109
-152 -209 -201 -264 -130 -628 -71 -780 128 -40 53 -70 127 -79 201 l-7 52
170 0 171 0 6 -25 c8 -33 65 -82 111 -94 51 -14 166 -14 216 1 113 34 130 142
30 192 -30 15 -60 20 -265 46 -148 18 -253 64 -322 140 -48 53 -74 114 -87
206 -35 231 100 420 343 484 90 23 238 26 327 5z m1226 4 c73 -13 170 -57 235
-104 83 -61 140 -167 153 -282 l5 -43 -169 0 c-158 0 -169 1 -169 19 0 29 -39
72 -84 92 -50 23 -115 24 -183 4 -83 -25 -131 -101 -101 -162 23 -48 79 -69
243 -93 233 -33 320 -61 398 -129 100 -88 133 -273 76 -425 -95 -254 -519
-368 -827 -221 -147 70 -251 217 -252 358 l0 27 168 0 167 0 16 -39 c25 -58
80 -83 192 -89 67 -3 98 0 132 12 48 19 95 66 95 96 0 68 -62 107 -193 121
-259 29 -362 62 -445 142 -81 78 -120 196 -109 325 16 190 141 327 349 382 83
22 214 26 303 9z m2808 -5 c40 -9 114 -36 166 -61 173 -83 300 -243 347 -438
26 -106 24 -297 -5 -400 -35 -125 -84 -209 -176 -301 -63 -64 -98 -90 -165
-122 -123 -60 -193 -76 -335 -76 -211 0 -361 59 -500 199 -141 140 -197 283
-198 505 0 151 17 231 75 350 82 165 241 289 438 340 95 24 253 26 353 4z
m1632 -18 c108 -37 198 -92 272 -168 126 -128 182 -265 190 -464 7 -157 -12
-255 -73 -383 -74 -153 -208 -271 -371 -325 -286 -97 -598 -24 -783 182 -68
75 -134 212 -156 322 -24 120 -15 295 20 405 60 189 203 343 386 415 100 40
167 50 305 46 109 -3 143 -7 210 -30z m-8210 -14 c166 -62 267 -184 303 -364
31 -160 -19 -327 -134 -442 l-56 -55 131 -212 c89 -143 131 -221 131 -240 l0
-29 -194 0 -194 0 -115 198 -115 197 -91 3 -91 3 0 -201 0 -200 -180 0 -180 0
0 686 0 685 363 -3 c345 -4 365 -5 422 -26z m5220 0 c166 -62 267 -184 303
-364 31 -160 -19 -327 -134 -442 l-56 -55 131 -212 c89 -143 131 -221 131
-240 l0 -29 -194 0 -194 0 -115 198 -115 197 -91 3 -91 3 0 -201 0 -200 -180
0 -180 0 0 686 0 685 363 -3 c345 -4 365 -5 422 -26z m4585 -127 l0 -155 -165
0 -165 0 0 -530 0 -530 -175 0 -175 0 0 530 0 530 -170 0 -170 0 0 155 0 155
510 0 510 0 0 -155z m-8539 -1902 l209 -206 0 201 0 202 105 0 105 0 0 -410 0
-410 -36 0 c-34 0 -51 14 -243 202 l-206 203 -3 -203 -2 -202 -105 0 -105 0 0
415 0 415 36 0 c33 0 51 -16 245 -207z m-1879 -93 l3 -290 27 -26 c51 -51 177
-41 208 15 6 12 10 129 10 305 l0 286 100 0 100 0 0 -297 c0 -175 -4 -313 -10
-335 -29 -105 -149 -187 -284 -196 -112 -7 -201 23 -271 91 -81 79 -85 100
-85 449 l0 288 100 0 99 0 3 -290z m3798 200 l0 -90 -50 0 -50 0 0 -230 0
-230 50 0 50 0 0 -90 0 -90 -205 0 -205 0 0 90 0 90 50 0 50 0 0 230 0 230
-50 0 -50 0 0 90 0 90 205 0 205 0 0 -90z m1610 -5 l0 -95 -100 0 -100 0 0
-315 0 -315 -105 0 -105 0 0 315 0 315 -100 0 -100 0 0 95 0 95 305 0 305 0 0
-95z m1580 0 l0 -95 -150 0 -150 0 0 -55 0 -55 140 0 140 0 0 -95 0 -95 -140
0 -140 0 0 -70 0 -70 155 0 155 0 0 -95 0 -95 -260 0 -260 0 0 410 0 410 255
0 255 0 0 -95z m1617 61 c254 -117 308 -493 98 -685 -92 -84 -133 -94 -377
-99 l-208 -4 0 412 0 412 213 -4 c209 -3 213 -3 274 -32z m-9975 -245 c32 -29
33 -32 33 -109 0 -71 -3 -83 -24 -106 -39 -41 -91 -53 -146 -32 -55 22 -78 60
-79 131 -2 99 39 144 131 145 44 0 58 -5 85 -29z m11510 0 c32 -29 33 -32 33
-109 0 -71 -3 -83 -24 -106 -39 -41 -91 -53 -146 -32 -55 22 -78 60 -79 131
-2 99 39 144 131 145 44 0 58 -5 85 -29z m-10912 -6153 l0 -5293 -62 95 c-156
241 -384 685 -497 967 -242 603 -382 1213 -431 1868 -6 92 -10 1416 -10 3898
l0 3757 500 0 500 0 0 -5292z m2900 4262 c0 -566 2 -1030 5 -1030 3 0 45 22
95 50 374 207 864 380 1293 454 l37 7 0 774 0 775 735 0 735 0 0 -774 0 -774
98 -17 c391 -70 895 -251 1250 -448 l82 -46 0 1030 0 1029 735 0 735 0 0
-1717 0 -1717 82 -135 c166 -273 323 -614 422 -914 160 -487 228 -999 205
-1557 -29 -732 -254 -1461 -646 -2086 l-63 -101 0 -1939 0 -1939 -98 -69
c-272 -195 -490 -333 -708 -448 -162 -85 -439 -218 -549 -263 -49 -20 -96 -39
-102 -42 -10 -4 -13 331 -13 1656 0 914 -2 1661 -4 1661 -2 0 -37 -19 -78 -42
-198 -113 -501 -241 -773 -327 -133 -43 -415 -114 -495 -126 -25 -3 -53 -9
-62 -11 -17 -5 -18 -89 -18 -1588 l0 -1582 -117 -13 c-368 -38 -991 -31 -1310
15 l-43 6 -2 1580 -3 1581 -135 27 c-382 77 -723 197 -1100 387 -101 51 -186
93 -187 93 -2 0 -3 -745 -3 -1655 0 -910 -2 -1655 -4 -1655 -2 0 -70 27 -152
61 -385 156 -816 395 -1182 654 l-127 91 -5 1954 -5 1955 -88 145 c-303 501
-502 1078 -582 1689 -34 265 -37 764 -5 1036 31 265 106 612 185 850 101 303
272 674 421 910 l69 110 3 1733 2 1732 735 0 735 0 0 -1030z m8240 -2726 c0
-2553 -3 -3802 -11 -3902 -62 -856 -305 -1688 -714 -2442 -82 -151 -189 -332
-250 -422 l-35 -53 0 5288 0 5287 505 0 505 0 0 -3756z"/>
<path d="M7330 17633 c-39 -92 -74 -174 -77 -180 -4 -10 30 -13 151 -13 86 0
156 1 156 3 0 2 -35 83 -79 181 l-78 177 -73 -168z"/>
<path d="M12596 17995 c-154 -63 -237 -227 -207 -408 26 -159 104 -251 247
-293 189 -55 380 64 423 264 43 203 -49 387 -222 446 -71 24 -170 21 -241 -9z"/>
<path d="M14172 18001 c-137 -47 -222 -180 -222 -346 0 -228 158 -389 366
-372 123 9 223 76 276 185 32 64 33 71 33 187 0 111 -2 124 -28 177 -35 71
-110 140 -183 167 -69 26 -169 27 -242 2z"/>
<path d="M5890 17855 l0 -177 144 4 c166 4 184 11 224 88 28 56 29 120 1 177
-33 67 -60 77 -226 81 l-143 4 0 -177z"/>
<path d="M11110 17855 l0 -177 144 4 c166 4 184 11 224 88 28 56 29 120 1 177
-33 67 -60 77 -226 81 l-143 4 0 -177z"/>
<path d="M14032 16073 l3 -218 81 0 c72 1 86 4 123 28 130 86 116 325 -23 388
-28 13 -64 19 -114 19 l-72 0 2 -217z"/>
<path d="M9888 13545 c-2 -1 -61 -5 -133 -9 -199 -9 -394 -35 -612 -82 -125
-27 -317 -77 -378 -99 -22 -7 -98 -35 -170 -60 -71 -26 -154 -58 -183 -71 -29
-13 -55 -24 -58 -24 -3 0 -71 -33 -152 -73 -212 -105 -452 -250 -584 -351 -15
-12 -48 -37 -73 -56 -238 -179 -571 -509 -730 -721 -11 -14 -38 -51 -61 -80
-323 -428 -584 -1001 -694 -1524 -7 -33 -16 -73 -21 -90 -10 -37 -44 -272 -60
-420 -14 -126 -18 -509 -6 -667 25 -357 94 -693 213 -1039 31 -90 64 -182 74
-204 10 -22 30 -69 45 -105 32 -76 144 -299 194 -385 118 -204 276 -427 437
-616 77 -90 374 -384 464 -460 368 -307 814 -562 1249 -713 311 -108 676 -186
1011 -216 148 -13 532 -13 680 0 511 45 995 180 1450 403 410 201 761 457
1095 798 199 204 272 291 418 496 146 204 309 494 392 693 15 36 33 79 41 95
41 90 127 348 168 505 50 195 72 307 101 532 56 425 31 988 -61 1378 -51 214
-123 463 -159 545 -7 17 -30 73 -50 125 -107 274 -303 623 -489 869 -23 29
-50 66 -61 80 -152 204 -476 527 -709 706 -132 102 -274 197 -431 290 -90 53
-386 205 -399 205 -3 0 -29 11 -58 24 -300 134 -762 255 -1128 295 -172 19
-560 36 -572 26z m72 -255 c12 -8 10 -15 -16 -42 -69 -75 -233 -311 -319 -458
-57 -98 -169 -332 -213 -445 -122 -313 -196 -645 -208 -930 -3 -66 -6 -140 -8
-165 -5 -69 12 -332 30 -450 69 -461 272 -912 564 -1251 33 -38 60 -76 60 -83
0 -32 -66 -200 -126 -323 -70 -141 -176 -307 -273 -425 -108 -133 -315 -326
-450 -422 l-53 -38 -35 34 c-73 69 -300 339 -461 548 -153 198 -432 681 -530
916 -145 350 -239 692 -277 1011 -24 198 -30 456 -14 633 39 451 162 854 382
1250 74 134 79 139 302 252 466 237 979 368 1525 391 30 1 66 3 80 4 14 2 32
-2 40 -7z m585 -31 c609 -88 1211 -335 1700 -697 195 -145 386 -317 550 -497
162 -178 242 -280 367 -469 235 -355 414 -768 513 -1181 60 -250 77 -371 43
-312 -26 48 -218 265 -334 378 -551 538 -1250 856 -2124 965 -185 23 -804 27
-1000 6 -249 -27 -546 -76 -735 -122 -81 -19 -79 -22 -71 88 7 108 8 118 37
282 95 547 363 1087 748 1507 65 71 67 72 116 72 28 1 113 -8 190 -20z m-2905
-807 c0 -4 -4 -12 -9 -17 -15 -17 -111 -294 -147 -424 -81 -295 -108 -513
-108 -866 0 -232 3 -307 22 -440 47 -347 159 -751 292 -1050 10 -22 28 -62 40
-90 193 -434 553 -970 907 -1349 41 -43 72 -84 71 -90 -6 -19 -226 -122 -363
-171 -253 -89 -437 -130 -690 -155 -102 -11 -466 -15 -510 -6 -11 2 -56 7
-100 11 -118 10 -347 52 -449 82 -41 12 -191 397 -261 673 -88 344 -119 596
-119 960 1 406 44 704 159 1090 115 386 284 730 535 1094 121 175 353 438 522
590 171 154 208 182 208 158z m3485 -1253 c874 -87 1564 -391 2105 -929 86
-85 193 -202 239 -260 93 -118 229 -320 286 -424 l38 -69 -7 -156 c-20 -474
-120 -918 -298 -1331 -65 -150 -183 -375 -197 -375 -7 0 -28 38 -46 85 -105
272 -269 569 -439 790 -113 148 -171 212 -317 357 -203 199 -312 286 -554 439
-94 59 -285 154 -418 207 -196 79 -463 144 -687 168 -217 23 -624 -2 -771 -47
-30 -9 -184 173 -286 337 -61 97 -146 271 -186 379 -77 209 -136 465 -140 612
l-2 72 95 23 c132 32 399 78 560 98 74 9 149 18 165 20 17 3 100 8 185 11 85
4 157 9 160 12 7 7 399 -7 515 -19z m-155 -1773 c203 -36 422 -106 613 -196
15 -7 27 -19 27 -25 0 -22 -69 -241 -120 -381 -96 -260 -254 -607 -349 -764
-11 -19 -24 -42 -28 -50 -11 -24 -101 -169 -156 -250 -273 -405 -608 -750
-972 -1002 -430 -297 -935 -479 -1460 -528 -136 -13 -388 -12 -417 0 -13 6
-32 16 -43 23 -248 151 -386 251 -575 415 -149 130 -350 339 -440 457 -158
207 -207 276 -269 383 -24 41 -41 76 -38 78 2 3 74 -5 158 -17 305 -42 709
-34 1017 21 739 130 1385 504 1785 1031 169 222 306 479 382 716 9 29 21 56
27 59 23 14 151 37 323 58 17 2 113 2 215 0 139 -3 218 -9 320 -28z m971 -412
c141 -98 227 -172 394 -339 149 -149 187 -192 288 -329 194 -265 351 -572 451
-885 l37 -113 -52 -72 c-164 -226 -342 -424 -528 -589 -181 -160 -426 -344
-546 -411 -16 -9 -43 -25 -60 -36 -46 -29 -70 -42 -209 -113 -440 -225 -898
-353 -1431 -398 -130 -11 -552 -8 -630 5 -16 3 -73 10 -125 16 -193 23 -404
68 -620 132 -134 40 -294 97 -288 103 2 2 73 15 158 29 85 14 207 39 270 55
118 30 387 117 405 131 6 4 21 11 35 15 68 21 290 131 429 213 102 59 292 187
351 234 309 248 530 473 742 753 83 110 194 274 263 387 76 125 209 377 265
503 12 28 34 75 47 105 55 120 147 369 199 535 20 66 39 124 41 128 7 12 22 5
114 -59z"/>
</g>
</svg>
